<svg width="900" height="1040" viewBox="0 0 900 1040" fill="none" xmlns="http://www.w3.org/2000/svg" role="img" aria-label="Ambiente corporativo escuro com parede institucional e luz circular">
  <defs>
    <linearGradient id="room" x1="0" y1="0" x2="900" y2="1040" gradientUnits="userSpaceOnUse">
      <stop stop-color="#666666"/>
      <stop offset="0.46" stop-color="#0B0B0B"/>
      <stop offset="1" stop-color="#666666"/>
    </linearGradient>
    <radialGradient id="halo" cx="0" cy="0" r="1" gradientUnits="userSpaceOnUse" gradientTransform="translate(450 398) rotate(90) scale(245)">
      <stop stop-color="#F4F4F4" stop-opacity="0.56"/>
      <stop offset="0.52" stop-color="#B8B8B8" stop-opacity="0.2"/>
      <stop offset="1" stop-color="#F4F4F4" stop-opacity="0"/>
    </radialGradient>
    <filter id="drop" x="-20%" y="-20%" width="140%" height="140%" color-interpolation-filters="sRGB">
      <feDropShadow dx="0" dy="25" stdDeviation="18" flood-color="#0B0B0B" flood-opacity="0.42"/>
    </filter>
  </defs>
  <rect width="900" height="1040" fill="#0B0B0B"/>
  <rect width="900" height="760" fill="url(#room)"/>
  <rect y="760" width="900" height="280" fill="#0B0B0B"/>
  <path d="M120 0V760M320 0V760M580 0V760M780 0V760" stroke="#F4F4F4" stroke-opacity="0.05"/>
  <rect x="64" y="66" width="772" height="810" rx="12" stroke="#F4F4F4" stroke-opacity="0.08"/>
  <circle cx="450" cy="398" r="228" fill="url(#halo)"/>
  <g filter="url(#drop)">
    <circle cx="450" cy="398" r="132" fill="#0B0B0B" stroke="#D8D8D8" stroke-opacity="0.54" stroke-width="9"/>
    <circle cx="450" cy="398" r="96" fill="#666666" opacity="0.5"/>
  </g>
  <g filter="url(#drop)">
    <rect x="190" y="622" width="520" height="154" rx="8" fill="#B8B8B8"/>
    <rect x="214" y="646" width="472" height="96" rx="5" fill="#666666"/>
    <rect x="216" y="742" width="468" height="34" fill="#0B0B0B" opacity="0.32"/>
    <rect x="252" y="786" width="398" height="34" rx="17" fill="#0B0B0B" opacity="0.55"/>
  </g>
  <g filter="url(#drop)">
    <ellipse cx="448" cy="610" rx="92" ry="22" fill="#0B0B0B"/>
    <rect x="388" y="546" width="120" height="72" rx="32" fill="#0B0B0B"/>
    <rect x="424" y="508" width="48" height="64" rx="24" fill="#0B0B0B"/>
  </g>
  <g opacity="0.82">
    <rect x="275" y="188" width="350" height="8" rx="4" fill="#D8D8D8"/>
    <rect x="334" y="214" width="232" height="7" rx="3.5" fill="#B8B8B8"/>
    <rect x="386" y="240" width="128" height="7" rx="3.5" fill="#666666"/>
  </g>
  <rect x="0" y="0" width="900" height="1040" fill="#F4F4F4" opacity="0.03"/>
</svg>
