<svg width="1180" height="820" viewBox="0 0 1180 820" fill="none" xmlns="http://www.w3.org/2000/svg" role="img" aria-label="Espaco de trabalho executivo em tons neutros">
  <defs>
    <linearGradient id="wall" x1="0" y1="0" x2="1180" y2="620" gradientUnits="userSpaceOnUse">
      <stop stop-color="#D8D8D8"/>
      <stop offset="0.52" stop-color="#B8B8B8"/>
      <stop offset="1" stop-color="#666666"/>
    </linearGradient>
    <linearGradient id="desk" x1="222" y1="510" x2="940" y2="740" gradientUnits="userSpaceOnUse">
      <stop stop-color="#666666"/>
      <stop offset="1" stop-color="#0B0B0B"/>
    </linearGradient>
    <radialGradient id="lampGlow" cx="0" cy="0" r="1" gradientUnits="userSpaceOnUse" gradientTransform="translate(338 326) rotate(90) scale(238 300)">
      <stop stop-color="#F4F4F4" stop-opacity="0.54"/>
      <stop offset="1" stop-color="#F4F4F4" stop-opacity="0"/>
    </radialGradient>
    <filter id="shadow" x="-20%" y="-20%" width="140%" height="140%" color-interpolation-filters="sRGB">
      <feDropShadow dx="0" dy="26" stdDeviation="20" flood-color="#0B0B0B" flood-opacity="0.34"/>
    </filter>
    <filter id="soft" x="-30%" y="-30%" width="160%" height="160%" color-interpolation-filters="sRGB">
      <feGaussianBlur stdDeviation="16"/>
    </filter>
  </defs>
  <rect width="1180" height="820" fill="#0B0B0B"/>
  <rect width="1180" height="580" fill="url(#wall)"/>
  <rect y="580" width="1180" height="240" fill="#0B0B0B"/>
  <rect x="80" y="60" width="1020" height="640" rx="12" stroke="#F4F4F4" stroke-opacity="0.1"/>
  <rect x="0" y="0" width="1180" height="820" fill="#0B0B0B" opacity="0.1"/>
  <g opacity="0.34">
    <path d="M0 580H1180" stroke="#F4F4F4" stroke-opacity="0.2"/>
    <path d="M124 0V580M336 0V580M548 0V580M760 0V580M972 0V580" stroke="#F4F4F4" stroke-opacity="0.06"/>
  </g>
  <ellipse cx="338" cy="326" rx="290" ry="236" fill="url(#lampGlow)"/>
  <g filter="url(#shadow)">
    <rect x="656" y="118" width="282" height="318" rx="9" fill="#0B0B0B"/>
    <rect x="683" y="145" width="228" height="264" rx="6" fill="#B8B8B8"/>
    <circle cx="802" cy="229" r="52" fill="#666666"/>
    <path d="M683 342C740 294 800 286 860 322C881 335 900 340 911 334V409H683V342Z" fill="#0B0B0B" opacity="0.78"/>
    <path d="M683 308C742 264 804 260 866 298C888 312 902 318 911 314V409H683V308Z" fill="#666666" opacity="0.55"/>
  </g>
  <g filter="url(#shadow)">
    <path d="M214 526H966L1030 718H152L214 526Z" fill="url(#desk)"/>
    <rect x="190" y="508" width="796" height="54" rx="10" fill="#666666"/>
    <rect x="246" y="548" width="288" height="12" rx="6" fill="#D8D8D8" opacity="0.44"/>
  </g>
  <g filter="url(#shadow)">
    <rect x="410" y="280" width="296" height="196" rx="12" fill="#0B0B0B"/>
    <rect x="430" y="300" width="256" height="144" rx="7" fill="#666666"/>
    <rect x="455" y="326" width="98" height="10" rx="5" fill="#F4F4F4" opacity="0.68"/>
    <rect x="455" y="358" width="176" height="8" rx="4" fill="#D8D8D8" opacity="0.48"/>
    <rect x="455" y="386" width="146" height="8" rx="4" fill="#D8D8D8" opacity="0.36"/>
    <path d="M455 422L512 390L572 406L638 348" stroke="#F4F4F4" stroke-opacity="0.5" stroke-width="6" stroke-linecap="round" stroke-linejoin="round"/>
    <rect x="542" y="476" width="32" height="56" rx="4" fill="#0B0B0B"/>
    <rect x="486" y="524" width="144" height="20" rx="10" fill="#0B0B0B"/>
  </g>
  <g filter="url(#shadow)">
    <rect x="286" y="598" width="188" height="118" rx="7" fill="#D8D8D8"/>
    <rect x="306" y="620" width="116" height="10" rx="5" fill="#666666"/>
    <rect x="306" y="652" width="134" height="8" rx="4" fill="#B8B8B8"/>
    <rect x="306" y="676" width="94" height="8" rx="4" fill="#B8B8B8"/>
  </g>
  <g filter="url(#shadow)">
    <rect x="714" y="582" width="172" height="102" rx="7" transform="rotate(-8 714 582)" fill="#B8B8B8"/>
    <rect x="736" y="606" width="116" height="8" rx="4" transform="rotate(-8 736 606)" fill="#0B0B0B" opacity="0.56"/>
  </g>
  <g filter="url(#shadow)">
    <path d="M236 398C252 356 324 356 344 398L329 420H251L236 398Z" fill="#0B0B0B"/>
    <rect x="281" y="420" width="20" height="94" rx="10" fill="#0B0B0B"/>
    <circle cx="291" cy="519" r="28" fill="#0B0B0B"/>
  </g>
  <ellipse cx="584" cy="735" rx="366" ry="42" fill="#0B0B0B" opacity="0.22" filter="url(#soft)"/>
  <rect x="26" y="26" width="1128" height="768" rx="12" stroke="#F4F4F4" stroke-opacity="0.1"/>
</svg>
