<svg width="920" height="920" viewBox="0 0 920 920" fill="none" xmlns="http://www.w3.org/2000/svg" role="img" aria-label="Composicao de materiais institucionais em tons neutros">
  <defs>
    <linearGradient id="base" x1="0" y1="0" x2="920" y2="920" gradientUnits="userSpaceOnUse">
      <stop stop-color="#D8D8D8"/>
      <stop offset="0.48" stop-color="#B8B8B8"/>
      <stop offset="1" stop-color="#666666"/>
    </linearGradient>
    <filter id="shadow" x="-30%" y="-30%" width="160%" height="160%" color-interpolation-filters="sRGB">
      <feDropShadow dx="0" dy="24" stdDeviation="20" flood-color="#0B0B0B" flood-opacity="0.3"/>
    </filter>
    <filter id="soft" x="-30%" y="-30%" width="160%" height="160%" color-interpolation-filters="sRGB">
      <feGaussianBlur stdDeviation="12"/>
    </filter>
  </defs>
  <rect width="920" height="920" fill="url(#base)"/>
  <circle cx="726" cy="138" r="88" fill="#0B0B0B" filter="url(#shadow)"/>
  <circle cx="726" cy="138" r="42" fill="#666666"/>
  <path d="M754 91C822 63 865 82 900 121" stroke="#0B0B0B" stroke-width="10" stroke-linecap="round"/>
  <path d="M783 73C825 40 864 39 907 62" stroke="#666666" stroke-width="7" stroke-linecap="round"/>
  <g filter="url(#shadow)">
    <rect x="130" y="176" width="304" height="470" rx="10" transform="rotate(-12 130 176)" fill="#0B0B0B"/>
    <rect x="172" y="220" width="222" height="384" rx="6" transform="rotate(-12 172 220)" fill="#666666"/>
    <rect x="212" y="265" width="126" height="16" rx="8" transform="rotate(-12 212 265)" fill="#D8D8D8"/>
    <rect x="212" y="311" width="156" height="12" rx="6" transform="rotate(-12 212 311)" fill="#B8B8B8"/>
  </g>
  <g filter="url(#shadow)">
    <rect x="388" y="240" width="304" height="482" rx="10" transform="rotate(8 388 240)" fill="#F4F4F4"/>
    <rect x="426" y="286" width="228" height="390" rx="6" transform="rotate(8 426 286)" fill="#D8D8D8"/>
    <rect x="465" y="332" width="146" height="16" rx="8" transform="rotate(8 465 332)" fill="#666666"/>
    <rect x="465" y="378" width="116" height="12" rx="6" transform="rotate(8 465 378)" fill="#B8B8B8"/>
  </g>
  <g filter="url(#shadow)">
    <rect x="548" y="484" width="260" height="260" rx="8" transform="rotate(-8 548 484)" fill="#666666"/>
    <rect x="580" y="520" width="198" height="174" rx="5" transform="rotate(-8 580 520)" fill="#0B0B0B"/>
    <rect x="608" y="558" width="120" height="10" rx="5" transform="rotate(-8 608 558)" fill="#F4F4F4" opacity="0.62"/>
  </g>
  <g filter="url(#shadow)">
    <path d="M76 688C222 626 338 646 425 752C309 814 184 810 76 688Z" fill="#D8D8D8"/>
    <path d="M116 706C228 664 320 681 389 748C295 789 201 783 116 706Z" fill="#B8B8B8"/>
    <path d="M156 720C241 700 302 710 351 746" stroke="#666666" stroke-width="6" stroke-linecap="round"/>
  </g>
  <ellipse cx="454" cy="780" rx="318" ry="34" fill="#0B0B0B" opacity="0.14" filter="url(#soft)"/>
  <rect x="34" y="34" width="852" height="852" rx="12" stroke="#F4F4F4" stroke-opacity="0.18"/>
</svg>
