<svg width="1200" height="820" viewBox="0 0 1200 820" fill="none" xmlns="http://www.w3.org/2000/svg" role="img" aria-label="Ambiente institucional neutro com mobiliario moderno">
  <defs>
    <linearGradient id="wall" x1="0" y1="0" x2="1200" y2="520" gradientUnits="userSpaceOnUse">
      <stop stop-color="#D8D8D8"/>
      <stop offset="0.58" stop-color="#B8B8B8"/>
      <stop offset="1" stop-color="#666666"/>
    </linearGradient>
    <linearGradient id="floor" x1="0" y1="520" x2="1200" y2="820" gradientUnits="userSpaceOnUse">
      <stop stop-color="#666666"/>
      <stop offset="1" stop-color="#0B0B0B"/>
    </linearGradient>
    <linearGradient id="sofa" x1="220" y1="400" x2="900" y2="635" gradientUnits="userSpaceOnUse">
      <stop stop-color="#D8D8D8"/>
      <stop offset="1" stop-color="#666666"/>
    </linearGradient>
    <radialGradient id="lampLight" cx="0" cy="0" r="1" gradientUnits="userSpaceOnUse" gradientTransform="translate(820 300) rotate(90) scale(260 210)">
      <stop stop-color="#F4F4F4" stop-opacity="0.5"/>
      <stop offset="1" stop-color="#F4F4F4" stop-opacity="0"/>
    </radialGradient>
    <filter id="softShadow" x="-20%" y="-20%" width="140%" height="140%" color-interpolation-filters="sRGB">
      <feDropShadow dx="0" dy="24" stdDeviation="18" flood-color="#0B0B0B" flood-opacity="0.32"/>
    </filter>
    <filter id="smallShadow" x="-30%" y="-30%" width="160%" height="160%" color-interpolation-filters="sRGB">
      <feDropShadow dx="0" dy="12" stdDeviation="10" flood-color="#0B0B0B" flood-opacity="0.35"/>
    </filter>
  </defs>
  <rect width="1200" height="820" fill="#0B0B0B"/>
  <rect width="1200" height="530" fill="url(#wall)"/>
  <rect y="520" width="1200" height="300" fill="url(#floor)"/>
  <rect x="0" y="520" width="1200" height="1" fill="#F4F4F4" opacity="0.2"/>
  <path d="M0 642C190 594 374 582 552 608C767 640 973 646 1200 602V820H0V642Z" fill="#0B0B0B" opacity="0.32"/>
  <rect x="168" y="568" width="640" height="118" rx="7" fill="#B8B8B8" opacity="0.28"/>
  <g filter="url(#smallShadow)">
    <rect x="348" y="128" width="324" height="224" rx="7" fill="#0B0B0B"/>
    <rect x="370" y="150" width="280" height="180" rx="4" fill="#D8D8D8"/>
    <circle cx="555" cy="205" r="39" fill="#666666"/>
    <path d="M370 295C442 250 498 247 562 283C596 302 624 311 650 300V330H370V295Z" fill="#0B0B0B" opacity="0.84"/>
    <path d="M370 270C441 228 498 226 566 263C599 281 626 287 650 279V330H370V270Z" fill="#666666" opacity="0.6"/>
  </g>
  <path d="M854 348C916 286 922 214 852 174" stroke="#0B0B0B" stroke-width="9" stroke-linecap="round"/>
  <g filter="url(#smallShadow)">
    <path d="M746 306C764 270 829 270 849 306L836 326H759L746 306Z" fill="#0B0B0B"/>
    <rect x="785" y="323" width="26" height="114" rx="13" fill="#0B0B0B"/>
    <circle cx="798" cy="438" r="35" fill="#0B0B0B"/>
  </g>
  <ellipse cx="800" cy="347" rx="162" ry="184" fill="url(#lampLight)"/>
  <g filter="url(#softShadow)">
    <rect x="178" y="414" width="676" height="168" rx="20" fill="url(#sofa)"/>
    <rect x="206" y="374" width="300" height="96" rx="18" fill="#D8D8D8"/>
    <rect x="512" y="378" width="315" height="98" rx="18" fill="#B8B8B8"/>
    <rect x="185" y="504" width="100" height="119" rx="10" fill="#D8D8D8"/>
    <rect x="304" y="496" width="366" height="126" rx="8" fill="#B8B8B8"/>
    <rect x="686" y="499" width="159" height="122" rx="8" fill="#666666"/>
    <rect x="412" y="405" width="104" height="58" rx="8" fill="#0B0B0B" opacity="0.78"/>
    <rect x="674" y="402" width="112" height="62" rx="8" fill="#666666" opacity="0.82"/>
  </g>
  <g filter="url(#smallShadow)">
    <ellipse cx="592" cy="672" rx="166" ry="41" fill="#0B0B0B"/>
    <rect x="445" y="638" width="294" height="40" rx="20" fill="#0B0B0B"/>
    <rect x="554" y="672" width="11" height="68" fill="#0B0B0B"/>
    <rect x="625" y="672" width="11" height="68" fill="#0B0B0B"/>
    <ellipse cx="592" cy="636" rx="122" ry="30" fill="#666666"/>
    <ellipse cx="592" cy="628" rx="86" ry="18" fill="#B8B8B8"/>
    <ellipse cx="612" cy="620" rx="48" ry="9" fill="#F4F4F4" opacity="0.42"/>
  </g>
  <g opacity="0.8">
    <rect x="936" y="394" width="185" height="142" rx="6" fill="#0B0B0B"/>
    <rect x="958" y="420" width="142" height="8" rx="4" fill="#666666"/>
    <rect x="958" y="448" width="108" height="8" rx="4" fill="#666666"/>
    <rect x="958" y="476" width="124" height="8" rx="4" fill="#666666"/>
  </g>
  <rect x="0" y="0" width="1200" height="820" fill="url(#wall)" opacity="0.06"/>
  <rect x="22" y="22" width="1156" height="776" rx="10" stroke="#F4F4F4" stroke-opacity="0.10"/>
</svg>
